<?xml version="1.0" encoding="UTF-8"?>
<svg id="Layer_1" data-name="Layer 1" xmlns="http://www.w3.org/2000/svg" viewBox="0 0 570 570">
  <defs>
    <style>
      .cls-1 {
        stroke-width: 0px;
      }
    </style>
  </defs>
  <path class="cls-1" d="M461.5,219.32c0,155.78-101.62,270.1-304.86,342.96v-76.21c58.17-32.75,98.94-60.17,122.35-82.23,35.43-34.1,53.15-72.53,53.15-115.32,0-31.42-8.02-47.13-24.07-47.13-8.7,0-21.23,2.85-37.61,8.53-16.39,5.69-29.25,8.52-38.61,8.52-34.77,0-64.02-12.03-87.75-36.1-23.74-24.07-35.6-52.47-35.6-85.24,0-40.77,15.7-72.86,47.14-96.27,28.74-22.06,64.18-33.09,106.3-33.09,58.82,0,107.3,22.41,145.41,67.19,36.1,41.46,54.15,89.59,54.15,144.41Z"/>
</svg>